<svg width="205" height="240" viewBox="0 0 205 240" fill="none" xmlns="http://www.w3.org/2000/svg">
<path d="M204.853 35.1472C188.071 18.3649 166.689 6.93598 143.411 2.30576C120.133 -2.32447 96.0052 0.0519367 74.078 9.13446C52.1509 18.217 33.4095 33.5977 20.2237 53.3316C7.03793 73.0655 5.58369e-05 96.2662 5.57898e-05 120C5.57427e-05 143.734 7.03793 166.935 20.2237 186.668C33.4095 206.402 52.1509 221.783 74.078 230.866C96.0052 239.948 120.133 242.324 143.411 237.694C166.689 233.064 188.071 221.635 204.853 204.853L201.459 201.459C185.348 217.57 164.821 228.541 142.474 232.986C120.128 237.431 96.965 235.15 75.9149 226.431C54.8649 217.712 36.8731 202.946 24.2148 184.002C11.5564 165.057 4.80006 142.784 4.80006 120C4.80006 97.2156 11.5564 74.9429 24.2148 55.9983C36.8731 37.0538 54.8649 22.2883 75.9149 13.5691C96.965 4.84986 120.128 2.56852 142.474 7.01353C164.821 11.4585 185.348 22.4303 201.459 38.5413L204.853 35.1472Z" fill="#D2D2D2"/>
</svg>
